<?xml version="1.0" encoding="UTF-8"?>
<svg id="Layer_1" xmlns="http://www.w3.org/2000/svg" xmlns:xlink="http://www.w3.org/1999/xlink" version="1.1" viewBox="0 0 226.77 136.03">
  <!-- Generator: Adobe Illustrator 30.0.0, SVG Export Plug-In . SVG Version: 2.1.1 Build 123)  -->
  <defs>
    <style>
      .st0 {
        fill: none;
      }

      .st1 {
        fill: #fff;
      }

      .st2 {
        fill: #dd006d;
      }

      .st3 {
        clip-path: url(#clippath);
      }
    </style>
    <clipPath id="clippath">
      <rect class="st0" width="226.77" height="136.03"/>
    </clipPath>
  </defs>
  <g class="st3">
    <path class="st2" d="M226.77,133.93V0H0v133.93c1.16,0,2.09.94,2.09,2.09h2.9c0-1.16.94-2.09,2.09-2.09s2.09.94,2.09,2.09h2.9c0-1.16.94-2.09,2.09-2.09s2.09.94,2.09,2.09h2.9c0-1.16.94-2.09,2.09-2.09s2.09.94,2.09,2.09h2.9c0-1.16.94-2.09,2.09-2.09s2.09.94,2.09,2.09h2.9c0-1.16.94-2.09,2.09-2.09s2.09.94,2.09,2.09h2.9c0-1.16.94-2.09,2.09-2.09s2.09.94,2.09,2.09h2.9c0-1.16.94-2.09,2.09-2.09s2.09.94,2.09,2.09h2.9c0-1.16.94-2.09,2.09-2.09s2.09.94,2.09,2.09h2.9c0-1.16.94-2.09,2.09-2.09s2.09.94,2.09,2.09h2.9c0-1.16.94-2.09,2.09-2.09s2.09.94,2.09,2.09h2.9c0-1.16.94-2.09,2.09-2.09s2.09.94,2.09,2.09h2.9c0-1.16.94-2.09,2.09-2.09s2.09.94,2.09,2.09h2.9c0-1.16.94-2.09,2.09-2.09s2.09.94,2.09,2.09h2.9c0-1.16.94-2.09,2.09-2.09s2.09.94,2.09,2.09h2.9c0-1.16.94-2.09,2.09-2.09s2.09.94,2.09,2.09h2.9c0-1.16.94-2.09,2.09-2.09s2.09.94,2.09,2.09h2.9c0-1.16.94-2.09,2.09-2.09s2.09.94,2.09,2.09h2.9c0-1.16.94-2.09,2.09-2.09s2.09.94,2.09,2.09h2.9c0-1.16.94-2.09,2.09-2.09s2.09.94,2.09,2.09h2.9c0-1.16.94-2.09,2.09-2.09s2.09.94,2.09,2.09h2.9c0-1.16.94-2.09,2.09-2.09s2.09.94,2.09,2.09h2.9c0-1.16.94-2.09,2.09-2.09s2.09.94,2.09,2.09h2.9c0-1.16.94-2.09,2.09-2.09s2.09.94,2.09,2.09h2.9c0-1.16.94-2.09,2.09-2.09s2.09.94,2.09,2.09h2.9c0-1.16.94-2.09,2.09-2.09s2.09.94,2.09,2.09h2.9c0-1.16.94-2.09,2.09-2.09s2.09.94,2.09,2.09h2.9c0-1.16.94-2.09,2.09-2.09s2.09.94,2.09,2.09h2.9c0-1.16.94-2.09,2.09-2.09s2.09.94,2.09,2.09h2.9c0-1.16.94-2.09,2.09-2.09s2.09.94,2.09,2.09h2.9c0-1.16.94-2.09,2.09-2.09s2.09.94,2.09,2.09h2.9c0-1.16.94-2.09,2.09-2.09s2.09.94,2.09,2.09h2.9c0-1.16.94-2.09,2.09-2.09"/>
    <path class="st1" d="M169.15,78.58c0,.23-.02,4.16-.02,4.16h-7.55v-2.84c0-2.74,1.48-3.78,4.49-3.78v-5.57h-5.33c-7.81,0-8.87,4.4-8.87,8.03,0,.23-.02,4.16-.02,4.16h-1.09c-1.61,0-2.91,1.3-2.91,2.91v2.79h4v29.51h9.96v-29.51h7.32v29.51h9.96v-29.51h1.63c1.75,0,3.16-1.41,3.16-3.16v-2.54h-5.02v-2.84c0-2.74,2.02-3.78,5.02-3.78v-5.57h-5.86c-7.81,0-8.87,4.4-8.87,8.03M24.58,110.78c0-12.02,11.99-15.9,11.99-24.87,0-2.85-1.82-4.73-4.5-4.73-2.39,0-4.23,1.3-4.23,1.3v-11.06c0-.48-.42-.88-.94-.88h-8.79v47.41h9.88v-.06c-2.08-1.79-3.4-4.9-3.4-7.1M194.99,97.24h4.09v-7.28c0-2.35,0-3.8-2.04-3.8s-2.05,1.45-2.05,3.8v7.28ZM207.87,112.08c-.83,1.81-3.55,6.41-10.93,6.41s-10.02-4.88-10.68-6.44c-.66-1.56-.99-3.43-.99-6.49v-11.45c0-3.99.16-12.93,11.67-12.93s11.74,8.81,11.74,12.93c0,.28,0,6.04,0,6.34h-6.81s-5.95,0-5.95,0c-.51,0-.93.42-.93.93v8.33c0,2.35,0,3.8,2.05,3.8s2.04-1.45,2.04-3.8v-4.61c0-.48.42-.88.94-.88h8.65v1.85c0,3.24.13,3.95-.8,6M61.45,98.63c-.42.88-1.35,1.92-2.05,3.12-.97,1.67-1.83,4.28-2.02,6.95-.22,3,.55,3.98,1.99,3.98,1.29,0,2.08-1.38,2.08-3.99v-10.06ZM71.48,92.6c.01.35.02,25.35.02,25.35h-8.8c-.51,0-.93-.41-.93-.93,0-1.15,0-2.96,0-2.96h-.18c-.23,1.27-2.8,4.42-7.34,4.42s-7.07-3.7-7.07-9.21c0-10.77,14.59-9.48,14.59-16.9,0-.49,0-2.36,0-2.42,0-2.35,0-3.8-2.05-3.8s-2.04,1.45-2.04,3.8v4.12c0,.48-.42.88-.94.88h-8.65c0-.3,0-.56,0-.85,0-4.12,0-12.93,11.74-12.93,10.22,0,11.49,7.04,11.65,11.41h0ZM136.17,98.63c-.42.88-1.35,1.92-2.05,3.12-.97,1.67-1.83,4.28-2.02,6.95-.22,3,.55,3.98,1.99,3.98,1.29,0,2.08-1.38,2.08-3.99v-10.06ZM146.21,92.6c.01.35.02,25.35.02,25.35h-8.8c-.51,0-.93-.41-.93-.93v-2.96h-.19c-.23,1.27-2.8,4.42-7.34,4.42s-7.07-3.7-7.07-9.21c0-10.77,14.59-9.48,14.59-16.9,0-.49,0-2.36,0-2.42,0-2.35,0-3.8-2.05-3.8s-2.04,1.45-2.04,3.8v4.12c0,.48-.42.88-.94.88h-8.65c0-.3,0-.56,0-.85,0-4.12,0-12.93,11.74-12.93,10.22,0,11.49,7.04,11.65,11.41h0ZM119.36,102.83h-8.65c-.52,0-.94.39-.94.88v6.01c0,2.35,0,3.8-2.04,3.8s-2.05-1.45-2.05-3.8v-19.76c0-2.35,0-3.8,2.05-3.8s2.04,1.45,2.04,3.8v4.12c0,.48.42.88.94.88h8.65c0-.3,0-.56,0-.85,0-4.12,0-12.93-11.74-12.93s-11.67,8.94-11.67,12.93v11.45c0,3.06.33,4.93,1,6.49.66,1.56,3.3,6.44,10.68,6.44s10.11-4.6,10.93-6.41c.93-2.04.8-4.16.8-7.4v-1.85ZM37.11,82.5l-.02.04c2.46,2.18,2.77,4.54,2.77,6.05,0,8.53-11.36,16.18-11.36,24.45,0,1.19.24,5.44,4.29,5.44,5,0,12.67-7.24,12.67-18.54,0-9.36-3.17-14.96-8.35-17.45M90.76,81.54c-2.38.16-4.55,1.71-5.29,4.94l-.37-.02v-3.8c0-.48-.42-.88-.94-.88h-8.33v36.15h9.74v-21.7c0-4.72,3.33-5.43,5.34-5.43,1.74,0,2.74.53,3,.7v-9.5s-1.13-.61-3.14-.47M186.45,82.3s-.04-1.46.9-3.45c.84-1.77,2.16-3.65,5.33-5.54,2.64-1.57,5.51-2.35,7.92-2.46,2.84-.13,4.91.66,5.43,2.22.71,2.13-.24,4.33-3.55,4.56-1.6.11-3.22,0-4.75,0-2.26,0-5.07.22-7.38,1.29-2.98,1.38-3.9,3.39-3.9,3.39"/>
  </g>
</svg>