<?xml version="1.0" encoding="UTF-8"?>
<svg id="Layer_1" xmlns="http://www.w3.org/2000/svg" version="1.1" viewBox="0 0 100 19">
  <!-- Generator: Adobe Illustrator 30.0.0, SVG Export Plug-In . SVG Version: 2.1.1 Build 123)  -->
  <defs>
    <style>
      .st0 {
        fill-rule: evenodd;
      }
    </style>
  </defs>
  <g id="Page-1">
    <g id="nespresso_logo">
      <path id="Shape" class="st0" d="M90.1,3.02c-1.49,0-6.08.53-6.08,6.44,0,6.31,4.96,6.57,5.96,6.57.62,0,2.85-.13,4.34-1.71,1.12-1.18,1.61-2.76,1.61-4.86.12-6.05-4.34-6.44-5.83-6.44h0ZM91.96,13.54c-.37.26-.87.66-1.74.66h-.12c-.87,0-1.36-.39-1.74-.66-.87-.79-1.24-2.23-1.24-4.34,0-3.94,1.86-4.6,2.98-4.6h.12c1.12,0,2.98.66,2.98,4.6,0,2.1-.37,3.55-1.24,4.34ZM18.38,18.01c-1.12-.39-2.73-1.71-3.6-2.89-1.12-1.45-3.97-5.39-3.97-5.39-.5-.53-.87-1.18-1.36-1.84-1.24-1.84-2.61-3.81-4.09-4.99v13.14h1.74v-6.83l1.49,1.97c.74,1.05,1.61,2.23,2.23,3.02.5.53,1.61,1.97,1.99,2.23,1.61,1.58,4.09,2.5,6.58,2.5,1.12,0,2.11-.13,3.1-.53v-.13c-.37.13-.87.13-1.24.13-.87.26-1.86,0-2.85-.39h0ZM7.71,3.94c1.12,1.45,4.09,5.39,4.09,5.39.37.53.87,1.18,1.24,1.84,1.24,1.84,2.61,3.81,4.09,4.99V3.02h-1.74v6.83l-1.49-1.97c-.74-1.18-1.49-2.23-2.23-3.02-.37-.66-1.74-1.97-2.11-2.37C8.08.92,5.48,0,3,0,2,0,1.01.13.02.53v.13c.37-.13.87-.13,1.24-.13.99,0,1.86.26,2.85.53,1.12.39,2.73,1.71,3.6,2.89h0ZM73.35,9.73c-1.36-1.31-2.98-1.58-4.09-2.37-.87-.66-.74-1.58-.37-2.1.99-1.31,3.1-.79,3.6-.66.62.13.87.26,1.49.66v-1.45c-2.48-.79-6.33-1.45-7.82,1.18-.62,1.05-.74,2.89.87,4.07,1.61,1.31,4.47,1.97,4.71,3.15.25.66,0,1.18-.37,1.58-1.49,1.45-3.85.53-5.34-.13v1.58c1.61.79,3.72.92,5.46.53,1.24-.26,2.61-1.45,2.85-2.89.25-1.45-.12-2.37-.99-3.15h0ZM82.28,9.73c-1.36-1.31-2.98-1.58-4.09-2.37-.87-.66-.74-1.58-.37-2.1.99-1.18,2.98-.66,3.47-.53.62.13.87.26,1.49.66v-1.58c-2.48-.79-6.33-1.45-7.82,1.18-.5,1.05-.62,2.89.99,4.07,1.61,1.31,4.47,1.97,4.71,3.15.25.66,0,1.18-.37,1.58-1.49,1.45-3.85.53-5.34-.13v1.58c1.61.79,3.6.92,5.46.53,1.24-.26,2.61-1.45,2.85-2.89.25-1.45-.12-2.37-.99-3.15h0ZM57.22,15.77h7.82v-1.58h-5.09v-4.07h4.09v-1.45h-4.09v-3.81h5.09v-1.45h-7.82v12.35ZM34.88,9.73c-1.36-1.31-2.98-1.58-4.09-2.37-.87-.66-.74-1.58-.37-2.1.99-1.18,2.98-.66,3.47-.53.62.13.87.26,1.49.66v-1.58c-2.48-.79-6.33-1.45-7.82,1.18-.5,1.05-.74,2.89.99,4.07,1.61,1.31,4.47,1.97,4.71,3.15.25.66,0,1.18-.37,1.58-1.49,1.45-3.85.53-5.34-.13v1.58c1.61.79,3.72.92,5.46.53,1.24-.26,2.61-1.45,2.85-2.89.12-1.45-.12-2.37-.99-3.15h0ZM18.75,15.77h7.82v-1.58h-5.09v-4.07h4.09v-1.45h-4.09v-3.81h5.09v-1.45h-7.82v12.35ZM42.2,3.29h-5.09v12.62h2.61v-4.6s4.09.26,5.34-1.45c.87-1.05.99-2.89.62-4.21-.62-1.71-1.99-2.37-3.47-2.37h0ZM42.7,8.94c-.74.79-1.99.79-2.98.66v-4.73s2.23-.53,3.1.79c.5.66.5,2.37-.12,3.29h0ZM54.61,9.73c.87-1.05.99-2.76.62-4.21-.5-1.45-1.86-2.23-3.35-2.23h-5.09v12.49h2.61v-4.6h1.24l2.73,4.6h2.98l-2.98-5.13c.37-.26.99-.53,1.24-.92h0ZM52.5,8.94c-.74.79-1.99.66-2.98.66v-4.6s2.11-.53,3.1.79c.37.66.5,2.23-.12,3.15h0ZM97.66,13.01c-.87,0-1.49.66-1.49,1.58s.74,1.58,1.49,1.58,1.49-.66,1.49-1.58-.74-1.58-1.49-1.58ZM97.66,15.9c-.74,0-1.36-.66-1.36-1.45s.62-1.45,1.36-1.45,1.36.66,1.36,1.45c-.12.92-.74,1.45-1.36,1.45ZM98.04,14.59s.25-.13.25-.39-.25-.53-.5-.53h-.74v1.71h.25v-.66h.5c.25,0,.37.13.37.39v.26h.25c-.12-.13-.12-.26-.12-.53s-.12-.26-.25-.26h0ZM97.66,14.46h-.5v-.53h.5c.12,0,.25,0,.25.26.12.13,0,.26-.25.26Z"/>
    </g>
  </g>
</svg>